<svg version="1" xmlns="http://www.w3.org/2000/svg" width="933.333" height="933.333" viewBox="0 0 700.000000 700.000000"><path d="M397.5 17c-6.2 1.3-9 2.6-13 6.2-3.9 3.4-8.5 11.7-8.5 15.4v2.2l-6.2-2c-10.2-3.1-20.3-3.5-28.5-1-31.6 9.7-32.5 56.5-2.3 118.7 3.8 7.7 9.3 18.1 12.3 23.2l5.5 9.2-1 8.8c-2.1 19.4-5.7 29-14.8 38.6-16.5 17.7-40.2 24.3-108.5 30.7-49.3 4.6-74.6 8.8-96.2 15.8-54.8 18.1-81.8 53.7-86.4 113.9-2.3 30 4.6 57.5 20.1 80.3 29.1 42.9 90.1 72.9 166.8 82.1 5.9.7 10.2 1.7 10.2 2.3 0 .6-1.4 14.4-3.2 30.7l-3.2 29.6-7.2 1.6c-10.6 2.3-19.9 7.2-26.9 14.2-6.3 6.3-12.5 17.1-12.5 21.9 0 6.1 5.5 11.6 11.5 11.6 4.7 0 8.2-2.7 11.6-9.1 3.8-7 9.1-11.9 15.5-14.4 2.5-.9 4.7-1.6 4.8-1.4.2.2-.2 5.1-.9 10.9-1.5 12.6-.6 16.3 4.4 19.7 4.2 2.8 7.6 2.9 11.8.3 4.5-2.7 5.4-5 6.8-17.2.7-6 1.5-11.1 1.8-11.4.7-.7 6.7 2.4 9.5 5 3.9 3.5 5.2 7.1 5.2 14.5 0 6.3.3 7.4 2.8 10.2 4 4.5 10.6 5.2 14.9 1.5 4.3-3.6 5.6-8.3 5.1-17.6-.8-14.5-9.3-26.3-23.8-33.2-4.1-2-8.3-3.9-9.2-4.2-2.3-.7-2.3-1.3 1.5-34.6l3.2-27.5 24-.6c13.2-.4 27.2-.9 31-1.3 11.6-1.2 30.9-3.6 32.6-4.2 1.3-.4 2.3 3.8 6.3 28.2 2.6 15.7 4.6 28.7 4.4 28.8-.1.1-2.5 1.5-5.2 3-2.6 1.6-7.4 5.4-10.5 8.6-12.7 13-18.7 29.4-16.6 45.6.6 4.7 1.3 6.4 4 9.1 2.7 2.7 4.1 3.3 7.7 3.3 8.5 0 11.3-4 11.3-16.5 0-7.6.4-9.9 2.6-14.5 3.2-6.8 10.5-15.2 11.3-13 .2.8 1.4 7.6 2.6 15 1.1 7.4 2.8 14.9 3.7 16.7 4.4 8.9 18.5 7.3 20.9-2.3.6-2.4-2.3-24.7-4.3-33.2-.7-2.9.8-2.8 4.7.4 4.1 3.5 7.7 10.8 9.7 19.7 2.1 9.7 3.8 12.6 8 14.4 4.8 2 9.3 1 12.9-2.8 2.6-2.7 2.9-3.6 2.7-9.2-.1-3.4-1.3-9.8-2.7-14.2-6.1-19.3-17.8-31.1-33.8-34.4-3.8-.8-5.9-1.8-6.2-2.9-1.2-4.4-8.9-53.3-8.4-53.8.3-.3 7.3-2.3 15.4-4.4 32.9-8.5 63.8-20.7 88.2-35 3.7-2.2 5.4-2.7 5.6-1.8 3.3 10.6 7.9 17.3 14 20.2 5.3 2.5 14.2 2.1 20.3-1 6.4-3.1 16.8-13.9 20.7-21.5l3-5.7 3.9 2.6c5.2 3.4 13.2 3.6 19.3.4 11.5-6 21.1-24.7 27-52.6 2-9.5 2.7-16.2 3.1-31.3l.6-19.2 10.5-6.3c15.8-9.5 21.2-17.2 20-28.3l-.5-4.4 5.4-1.6c6.5-1.9 13.7-8 15.4-13.2 1.6-4.9.6-13.2-2.4-19.7-4.4-9.5-7.4-13.6-45.9-62.7-26.9-34.2-34.1-44.6-37.8-53.9-8.9-22.9-23.6-47.7-37-62.6l-3.7-4-.6-24.5c-1.4-49.1-7.1-74.1-19.8-86.7-12.4-12.2-28.9-7.6-40.4 11.2-.9 1.4-1.9.8-8-4.1-22.6-18.2-47.3-28.3-62-25.3zm24.7 28.7c14.1 7.1 25.2 15.8 40.7 31.9 7.2 7.5 13.3 13.5 13.4 13.3.2-.2 2.2-6.7 4.6-14.4 4.1-13.5 7.4-20.8 10.4-23.4 1.2-1 1.8-.4 3.6 3.2 2.6 5.4 5.6 17.1 7.1 27.3 1.1 8.5 3.2 40.6 2.6 41.2-.2.2-2.8-1.2-5.7-3.1-20.7-13.2-43.4-19-64.9-16.6-18.9 2.1-34.4 9.3-47.6 22.4-8.7 8.6-12.2 13.3-17.7 23.6l-3.5 6.7-6-12.7c-11.5-24.2-17.8-44.8-18.9-61.7-2-30.6 10.2-31.8 57.6-6 5.7 3.2 10.6 5.5 10.9 5.2.2-.3-1.8-7.9-4.7-16.9-3.2-10.2-5.1-18.1-5.1-21.1v-4.8l6.4.4c5.3.3 8.3 1.3 16.8 5.5zm38.4 84.3c24.2 6 48.3 25 66.4 52.3 23.6 35.4 37 80.1 41.1 137.2 3.4 46.4-2.8 76.5-22.3 108.3-10.6 17.4-31.5 39.3-47.9 50.3-1.9 1.3-7.4 5-12.2 8.2-4.7 3.2-14.1 8.6-20.9 12.2-103.9 54.1-259.2 53.6-340.9-1.1C96 478.7 79 454.6 74 426.4c-1.8-10.2-.8-39.1 1.9-50.5 4.5-19.5 11.6-33.3 23.6-45.4 23.1-23.5 54.4-33 131-40 53.2-4.9 75.3-8.8 95.3-17 13.2-5.4 21.9-11 30.7-19.9 13.3-13.4 19.3-27.3 22-51 1.9-15.8 3.5-23.1 7.5-33.3 7.6-19.8 23.2-34.7 41.6-39.8 7.6-2.1 23.7-1.8 33 .5zm142.1 169c21.3 27 30.4 40.2 28.9 41.8-1 .9-25.9 1.5-32.8.8l-6.5-.7-.6-14.7c-.6-13.6-2.9-36.6-4.3-43.7-.8-3.9-.9-4.1 15.3 16.5zm.2 66c5.2 0 5.8.2 7.4 2.9 2.1 3.5 2.2 3.4-12.2 12-9.1 5.4-10.3 5.9-9.7 3.9.3-1.3 1.2-6.3 1.8-11.1l1.3-8.9 2.9.6c1.5.3 5.4.6 8.5.6zM580 435.4c-.6 5.5-2.4 15-4 21.1-2.7 10.8-8.6 25.5-10.8 26.9-.6.4-2.1-2.7-3.7-7.6-1.5-4.6-2.9-8.5-3.1-8.8-.1-.3-3.2-.3-6.8 0-5.7.5-6.3.3-5.3-1 .7-.8 3.4-4.1 6-7.4 2.7-3.2 8-10.6 11.9-16.5 3.9-5.8 9.2-13.1 11.7-16.1 4.2-4.9 4.6-5.2 4.9-3.1.2 1.3-.1 6.9-.8 12.5zm-46.6 47.8c-2.5 8.6-7.5 17.7-12.2 22.6-4.4 4.5-4.5 4.5-5.4 2.3-.4-1.3-1.1-4.6-1.4-7.4l-.6-5.2 10.3-8.7c5.7-4.8 10.5-8.7 10.6-8.7.1-.1-.5 2.3-1.3 5.1z"/><path d="M446.5 200.8c-4.6 2.8-6.6 6.6-8.1 15.1-2.5 14-1.2 33.7 2.7 41.3 5.2 10.2 17.7 10.1 22.9-.2 2.8-5.5 4.3-17.7 3.7-30-.7-13.4-2.1-19-6.1-23.6-3.9-4.5-10.3-5.7-15.1-2.6zM289.2 333.5c-32.4 13.1-55.1 28.6-66.1 45.1-5.9 8.8-8.1 15.3-8.1 24 0 23 22.6 39.9 61 45.5 11 1.6 46.4 1.6 60.5 0C360 445.5 398.4 438 404 435c2.3-1.2 5-6.6 5-10 0-5.4-5.7-11-11.3-11-1.3 0-7.4 1.1-13.4 2.5-24 5.4-46.5 8.6-70.3 9.9l-9.5.6 13.5-3.5c11.4-3 13.9-4 16.3-6.5 5.8-6.4 2.1-17.3-6.3-18.6-2.5-.4-14.4 2.2-41 8.8l-37.6 9.5-3.8-2.6c-2.1-1.4-3.4-2.6-3-2.8.5-.1 11.5-3 24.4-6.3 28-7.2 28.7-7.5 31.1-11.4 3.1-5 2.5-10.2-1.5-14.2-4.6-4.6-6.5-4.5-29.7 1.6-10.6 2.8-19.4 4.8-19.6 4.6-.7-.6 9.9-9.2 17.2-13.9 8.9-5.7 22.3-12.4 34.5-17.2 11.9-4.7 14.6-6.2 15.9-9.2 1.6-3.5 1.3-9.5-.5-12.2-1.7-2.4-7.1-5.1-10.1-5.1-1 .1-7.8 2.5-15.1 5.5z"/></svg>